<svg viewBox="0 0 512 512" xmlns="http://www.w3.org/2000/svg">
  <linearGradient
    id="bridger-button-linear-gradient" gradientUnits="userSpaceOnUse"
    x1="139.02"
    x2="446.46"
    y1="182.23"
    y2="489.67"
  >
    <stop offset="0" stop-opacity=".35"/>
    <stop offset="1" stop-opacity="0"/>
  </linearGradient>
  <g id="Social_Icon">
    <g id="Comment">
      <rect fill="#10B981" height="512" width="512"/>
      <path
        d="m512 255.75v106.25c0 82.84-67.16 150-150 150h-192.67l-90.38-90.38 54.45-117.3 1.61-118.09 267.36-40.12 109.63 109.63z"
        fill="url(#bridger-button-linear-gradient)"/>
      <path
        d="m256 90.38c-104.93 0-190 68.87-190 153.82 0 35.84 15.14 68.81 40.52 94.96l-27.57 82.46 105.55-34.87c22.07 7.26 46.2 11.27 71.49 11.27 104.93 0 190-68.87 190-153.82s-85.07-153.82-190-153.82zm-83.13 184.9c-17.16 0-31.08-13.91-31.08-31.08s13.91-31.08 31.08-31.08 31.08 13.91 31.08 31.08-13.91 31.08-31.08 31.08zm83.13 0c-17.16 0-31.08-13.91-31.08-31.08s13.91-31.08 31.08-31.08 31.08 13.91 31.08 31.08-13.91 31.08-31.08 31.08zm83.13 0c-17.16 0-31.08-13.91-31.08-31.08s13.91-31.08 31.08-31.08 31.08 13.91 31.08 31.08-13.91 31.08-31.08 31.08z"
        fill="#fff"/>
    </g>
  </g>
</svg>